<svg width="128" height="44" viewBox="0 0 128 44" fill="none" xmlns="http://www.w3.org/2000/svg">
<path d="M4.24432 35H0.920455L10.5341 8.81818H13.8068L23.4205 35H20.0966L12.2727 12.9602H12.0682L4.24432 35ZM5.47159 24.7727H18.8693V27.5852H5.47159V24.7727ZM48.2599 8.81818V35H45.1918L30.9247 14.4432H30.669V35H27.4986V8.81818H30.5668L44.8849 29.4261H45.1406V8.81818H48.2599ZM62.6836 35H54.604V8.81818H63.0415C65.5813 8.81818 67.7546 9.34233 69.5614 10.3906C71.3683 11.4304 72.7532 12.9261 73.7163 14.8778C74.6793 16.821 75.1609 19.1477 75.1609 21.858C75.1609 24.5852 74.6751 26.9332 73.7035 28.902C72.7319 30.8622 71.3171 32.3707 69.4592 33.4276C67.6012 34.4759 65.3427 35 62.6836 35ZM57.7745 32.1875H62.479C64.6438 32.1875 66.4379 31.7699 67.8612 30.9347C69.2844 30.0994 70.3455 28.9105 71.0444 27.3679C71.7433 25.8253 72.0927 23.9886 72.0927 21.858C72.0927 19.7443 71.7475 17.9247 71.0572 16.3991C70.3668 14.8651 69.3356 13.6889 67.9634 12.8707C66.5913 12.044 64.8825 11.6307 62.837 11.6307H57.7745V32.1875ZM102.57 21.9091C102.57 24.6705 102.071 27.0568 101.074 29.0682C100.077 31.0795 98.7092 32.6307 96.9705 33.7216C95.2319 34.8125 93.2461 35.358 91.0131 35.358C88.7802 35.358 86.7944 34.8125 85.0558 33.7216C83.3171 32.6307 81.9492 31.0795 80.9521 29.0682C79.9549 27.0568 79.4563 24.6705 79.4563 21.9091C79.4563 19.1477 79.9549 16.7614 80.9521 14.75C81.9492 12.7386 83.3171 11.1875 85.0558 10.0966C86.7944 9.00568 88.7802 8.46023 91.0131 8.46023C93.2461 8.46023 95.2319 9.00568 96.9705 10.0966C98.7092 11.1875 100.077 12.7386 101.074 14.75C102.071 16.7614 102.57 19.1477 102.57 21.9091ZM99.5018 21.9091C99.5018 19.642 99.1225 17.7287 98.364 16.169C97.614 14.6094 96.5955 13.429 95.3086 12.6278C94.0302 11.8267 92.5984 11.4261 91.0131 11.4261C89.4279 11.4261 87.9918 11.8267 86.7049 12.6278C85.4265 13.429 84.408 14.6094 83.6495 16.169C82.8995 17.7287 82.5245 19.642 82.5245 21.9091C82.5245 24.1761 82.8995 26.0895 83.6495 27.6491C84.408 29.2088 85.4265 30.3892 86.7049 31.1903C87.9918 31.9915 89.4279 32.392 91.0131 32.392C92.5984 32.392 94.0302 31.9915 95.3086 31.1903C96.5955 30.3892 97.614 29.2088 98.364 27.6491C99.1225 26.0895 99.5018 24.1761 99.5018 21.9091ZM107.901 35V8.81818H116.748C118.793 8.81818 120.472 9.16761 121.784 9.86648C123.097 10.5568 124.069 11.5071 124.699 12.7173C125.33 13.9276 125.645 15.304 125.645 16.8466C125.645 18.3892 125.33 19.7571 124.699 20.9503C124.069 22.1435 123.101 23.081 121.797 23.7628C120.493 24.4361 118.827 24.7727 116.799 24.7727H109.64V21.9091H116.696C118.094 21.9091 119.219 21.7045 120.071 21.2955C120.932 20.8864 121.554 20.3068 121.938 19.5568C122.33 18.7983 122.526 17.8949 122.526 16.8466C122.526 15.7983 122.33 14.8821 121.938 14.098C121.546 13.3139 120.919 12.7088 120.059 12.2827C119.198 11.848 118.06 11.6307 116.645 11.6307H111.071V35H107.901ZM120.225 23.2386L126.668 35H122.986L116.645 23.2386H120.225Z" fill="white"/>
<path d="M56 32.5V11C71.2 7.8 74.3333 17.3333 74 22.5C72 34.9 61.1667 34.3333 56 32.5Z" fill="white" stroke="white"/>
</svg>
